# xmcd
#
# Track frame offsets:
#	150
#	13424
#	31246
#	45944
#	63100
#	80400
#	96744
#	111524
#	127450
#	143452
#	161177
#	176813
#
# Disc length: 2536 seconds
#
# Revision: 0
# Processed by: cddbd v1.5.1PL0 Copyright (c) Steve Scherf et al.
# Submitted via: dBpowerAMP V4.0
#
DISCID=ab09e60c
DTITLE=Rivaldo and Ricrado - Rivaldo and Ricardo Vol. 3
DYEAR=1900
DGENRE=Country
TTITLE0=É nóis na fita
TTITLE1=Se eu mandasse no seu coração
TTITLE2=Pra desaguar
TTITLE3=Café no bule
TTITLE4=Quem ama sabe
TTITLE5=Pagando pra ver
TTITLE6=Tá bão
TTITLE7=Chorar pra que?
TTITLE8=Meu desespero
TTITLE9=Dormindo com a saudade
TTITLE10=Festa de campeão
TTITLE11=Papo furado
EXTD=
EXTT0=
EXTT1=
EXTT2=
EXTT3=
EXTT4=
EXTT5=
EXTT6=
EXTT7=
EXTT8=
EXTT9=
EXTT10=
EXTT11=
PLAYORDER=
